<?xml version="1.0" encoding="UTF-8" standalone="no"?>
<!-- Created with Inkscape (http://www.inkscape.org/) -->

<svg
   width="105.83334mm"
   height="10.788604mm"
   viewBox="0 0 105.83334 10.788604"
   version="1.1"
   id="svg1"
   inkscape:version="1.3 (0e150ed6c4, 2023-07-21)"
   sodipodi:docname="Anna's Archive Logo 26.10.2023.svg"
   xmlns:inkscape="http://www.inkscape.org/namespaces/inkscape"
   xmlns:sodipodi="http://sodipodi.sourceforge.net/DTD/sodipodi-0.dtd"
   xmlns="http://www.w3.org/2000/svg"
   xmlns:svg="http://www.w3.org/2000/svg">
  <sodipodi:namedview
     id="namedview1"
     pagecolor="#ffffff"
     bordercolor="#111111"
     borderopacity="1"
     inkscape:showpageshadow="0"
     inkscape:pageopacity="0"
     inkscape:pagecheckerboard="1"
     inkscape:deskcolor="#d1d1d1"
     inkscape:document-units="mm"
     inkscape:zoom="0.56390993"
     inkscape:cx="200.38661"
     inkscape:cy="20.393328"
     inkscape:window-width="1600"
     inkscape:window-height="829"
     inkscape:window-x="-8"
     inkscape:window-y="-8"
     inkscape:window-maximized="1"
     inkscape:current-layer="layer1" />
  <defs
     id="defs1">
    <clipPath
       clipPathUnits="userSpaceOnUse"
       id="clipPath29">
      <path
         d="M 0.32,0 V 1122.5601 H 793.76001 V 0 Z"
         transform="translate(-302.72,-85.150002)"
         clip-rule="evenodd"
         id="path29" />
    </clipPath>
    <clipPath
       clipPathUnits="userSpaceOnUse"
       id="clipPath27">
      <path
         d="M 0.32,0 V 1122.5601 H 793.76001 V 0 Z"
         transform="translate(-288.45001,-91.879997)"
         clip-rule="evenodd"
         id="path27" />
    </clipPath>
    <clipPath
       clipPathUnits="userSpaceOnUse"
       id="clipPath25">
      <path
         d="M 0.32,0 V 1122.5601 H 793.76001 V 0 Z"
         transform="translate(-272.26999,-69.290001)"
         clip-rule="evenodd"
         id="path25" />
    </clipPath>
    <clipPath
       clipPathUnits="userSpaceOnUse"
       id="clipPath23">
      <path
         d="M 0.32,0 V 1122.5601 H 793.76001 V 0 Z"
         transform="translate(-253.83,-91.879997)"
         clip-rule="evenodd"
         id="path23" />
    </clipPath>
    <clipPath
       clipPathUnits="userSpaceOnUse"
       id="clipPath21">
      <path
         d="M 0.32,0 V 1122.5601 H 793.76001 V 0 Z"
         transform="translate(-239.25,-91.400002)"
         clip-rule="evenodd"
         id="path21" />
    </clipPath>
    <clipPath
       clipPathUnits="userSpaceOnUse"
       id="clipPath19">
      <path
         d="M 0.32,0 V 1122.5601 H 793.76001 V 0 Z"
         transform="translate(-222.42,-80.349998)"
         clip-rule="evenodd"
         id="path19" />
    </clipPath>
    <clipPath
       clipPathUnits="userSpaceOnUse"
       id="clipPath17">
      <path
         d="M 0.32,0 V 1122.5601 H 793.76001 V 0 Z"
         transform="translate(-198.53999,-91.879997)"
         clip-rule="evenodd"
         id="path17" />
    </clipPath>
    <clipPath
       clipPathUnits="userSpaceOnUse"
       id="clipPath15">
      <path
         d="M 0.32,0 V 1122.5601 H 793.76001 V 0 Z"
         transform="translate(-169.53,-85.949997)"
         clip-rule="evenodd"
         id="path15" />
    </clipPath>
    <clipPath
       clipPathUnits="userSpaceOnUse"
       id="clipPath13">
      <path
         d="M 0.32,0 V 1122.5601 H 793.76001 V 0 Z"
         clip-rule="evenodd"
         id="path13" />
    </clipPath>
    <clipPath
       clipPathUnits="userSpaceOnUse"
       id="clipPath11">
      <path
         d="M 0.32,0 V 1122.5601 H 793.76001 V 0 Z"
         transform="translate(-132.82001,-91.879997)"
         clip-rule="evenodd"
         id="path11" />
    </clipPath>
    <clipPath
       clipPathUnits="userSpaceOnUse"
       id="clipPath9">
      <path
         d="M 0.32,0 V 1122.5601 H 793.76001 V 0 Z"
         transform="translate(-112.15,-91.879997)"
         clip-rule="evenodd"
         id="path9" />
    </clipPath>
    <clipPath
       clipPathUnits="userSpaceOnUse"
       id="clipPath7">
      <path
         d="M 0.32,0 V 1122.5601 H 793.76001 V 0 Z"
         transform="translate(-89.709999,-91.879997)"
         clip-rule="evenodd"
         id="path7" />
    </clipPath>
    <clipPath
       clipPathUnits="userSpaceOnUse"
       id="clipPath5">
      <path
         d="M 0.32,0 V 1122.5601 H 793.76001 V 0 Z"
         transform="translate(-67.75,-91.879997)"
         clip-rule="evenodd"
         id="path5" />
    </clipPath>
  </defs>
  <g
     inkscape:label="Layer 1"
     inkscape:groupmode="layer"
     id="layer1"
     transform="translate(-52.122917,-143.13959)">
    <path
       id="path4"
       d="M 0,0 -1.12,-4.64 H -8.66 L -9.78,0 h -8.170001 L -9.3,-24.99 H 0 L 8.17,0 Z m -4.81,-19.540001 h -0.16 c 0,0.320002 0,0.800001 -0.16,1.440001 -0.16,0.640001 -0.96,3.36 -2.08,8.17 h 4.64 l -1.76,-6.73 c -0.16,-1.120001 -0.32,-2.08 -0.48,-2.880001 z"
       style="fill:#000000;fill-opacity:1;fill-rule:nonzero;stroke:none"
       transform="matrix(0.4009142,0,0,0.4009142,59.319327,153.73575)"
       clip-path="url(#clipPath5)" />
    <path
       id="path6"
       d="m 0,0 v -9.77 c 0,-1.12 -0.16,-1.76 -0.48,-2.4 -0.32,-0.48 -0.81,-0.64 -1.61,-0.64 -0.64,0 -1.12,0.16 -1.44,0.8 -0.32,0.48 -0.64,1.12 -0.64,1.92 V 0 h -7.37 v -17.780001 h 7.37 V -15.06 h 0.16 c 0.64,-0.96 1.44,-1.76 2.4,-2.399999 C -0.64,-17.940001 0.48,-18.26 1.6,-18.26 c 4.01,0 5.93,2.4 5.93,7.37 L 7.53,0 Z"
       style="fill:#000000;fill-opacity:1;fill-rule:nonzero;stroke:none"
       transform="matrix(0.4009142,0,0,0.4009142,68.123403,153.73575)"
       clip-path="url(#clipPath7)" />
    <path
       id="path8"
       d="m 0,0 v -9.77 c 0,-1.12 -0.16,-1.76 -0.49,-2.4 -0.32,-0.48 -0.96,-0.64 -1.6,-0.64 -0.64,0 -1.12,0.16 -1.6,0.8 -0.32,0.48 -0.48,1.12 -0.48,1.92 V 0 h -7.37 v -17.780001 h 7.37 v 2.720001 0 c 0.64,-0.96 1.44,-1.76 2.4,-2.399999 C -0.81,-17.940001 0.32,-18.26 1.6,-18.26 c 3.85,0 5.77,2.4 5.77,7.37 L 7.37,0 Z"
       style="fill:#000000;fill-opacity:1;fill-rule:nonzero;stroke:none"
       transform="matrix(0.4009142,0,0,0.4009142,77.119919,153.73575)"
       clip-path="url(#clipPath9)" />
    <path
       id="path10"
       d="m 0,0 v -2.72 h -0.16 c -1.12,2.08 -2.88,3.2 -5.45,3.2 -1.6,0 -2.88,-0.48 -3.84,-1.44 -0.97,-1.12 -1.45,-2.4 -1.45,-4.01 0,-3.52 2.09,-5.6 6.41,-6.24 L 0,-11.69 c 0,-0.64 -0.32,-1.12 -0.8,-1.44 -0.48,-0.33 -1.28,-0.65 -2.08,-0.65 -2.09,0 -4.17,0.65 -6.41,1.77 v -4.81 c 0.96,-0.479999 2.24,-0.800001 3.68,-1.120001 C -4.17,-18.1 -2.88,-18.26 -1.92,-18.26 c 3.04,0 5.29,0.639999 6.57,1.92 1.44,1.28 2.08,3.53 2.08,6.57 V 0 Z m -4.49,-6.09 c 0,0.48 0.16,0.96 0.48,1.29 0.33,0.32 0.81,0.48 1.29,0.48 0.8,0 1.44,-0.32 1.92,-0.97 C -0.32,-5.77 0,-6.57 0,-7.53 v -0.64 l -2.56,0.32 c -1.28,0.32 -1.93,0.8 -1.93,1.76 z"
       style="fill:#000000;fill-opacity:1;fill-rule:nonzero;stroke:none"
       transform="matrix(0.4009142,0,0,0.4009142,85.40682,153.73575)"
       clip-path="url(#clipPath11)" />
    <path
       id="path12"
       d="M 147.57001,74.099998 H 143.24 L 145.32001,66.25 H 151.73 Z"
       style="fill:#000000;fill-opacity:1;fill-rule:nonzero;stroke:none"
       clip-path="url(#clipPath13)"
       transform="matrix(0.4009142,0,0,0.4009142,32.157389,116.89975)" />
    <path
       id="path14"
       d="m 0,0 c 0,2.09 -0.81,3.69 -2.25,4.81 -1.6,0.96 -3.68,1.6 -6.57,1.6 -0.8,0 -1.76,-0.16 -2.88,-0.32 -1.13,-0.16 -2.09,-0.32 -2.89,-0.48 V 0.32 c 2.24,0.97 4.01,1.45 5.45,1.45 1.44,0 2.24,-0.32 2.24,-1.13 0,-0.32 -0.16,-0.48 -0.48,-0.8 -0.32,-0.16 -1.28,-0.48 -2.72,-0.96 -1.6,-0.48 -2.73,-1.12 -3.37,-1.92 -0.8,-0.96 -1.12,-1.92 -1.12,-3.36 0,-1.77 0.64,-3.21 2.24,-4.33 1.45,-1.12 3.53,-1.6 6.1,-1.6 1.6,0 3.2,0.16 4.96,0.64 v 4.97 c -0.64,-0.16 -1.44,-0.48 -2.4,-0.65 -0.8,-0.32 -1.6,-0.32 -2.08,-0.32 -0.48,0 -0.97,0 -1.29,0.16 -0.32,0.16 -0.32,0.49 -0.32,0.65 0,0.32 0.16,0.64 0.32,0.96 0.32,0.16 0.97,0.32 1.93,0.64 1.92,0.64 3.2,1.28 4,2.08 C -0.32,-2.4 0,-1.28 0,0 Z"
       style="fill:#000000;fill-opacity:1;fill-rule:nonzero;stroke:none"
       transform="matrix(0.4009142,0,0,0.4009142,100.12438,151.35833)"
       clip-path="url(#clipPath15)" />
    <path
       id="path16"
       d="M 0,0 -1.13,-4.64 H -8.5 L -9.78,0 h -8.170001 L -9.3,-24.99 H 0 L 8.17,0 Z m -4.81,-19.540001 h -0.16 c 0,0.320002 0,0.800001 -0.16,1.440001 -0.16,0.640001 -0.8,3.36 -2.09,8.17 h 4.65 l -1.6,-6.73 c -0.32,-1.120001 -0.48,-2.08 -0.64,-2.880001 z"
       style="fill:#000000;fill-opacity:1;fill-rule:nonzero;stroke:none"
       transform="matrix(0.4009142,0,0,0.4009142,111.75489,153.73575)"
       clip-path="url(#clipPath17)" />
    <path
       id="path18"
       d="m 0,0 c -0.32,0 -0.64,-0.16 -1.12,-0.32 -0.48,0 -0.81,-0.16 -1.13,-0.16 -2.56,0 -3.68,1.44 -3.68,4.32 v 7.69 h -7.54 V -6.25 h 7.54 v 3.04 0 c 0.48,-1.12 1.12,-1.92 1.92,-2.56 0.8,-0.48 1.76,-0.8 2.89,-0.8 0.48,0 0.8,0 1.12,0.16 z"
       style="fill:#000000;fill-opacity:1;fill-rule:nonzero;stroke:none"
       transform="matrix(0.4009142,0,0,0.4009142,121.32873,149.11321)"
       clip-path="url(#clipPath19)" />
    <path
       id="path20"
       d="m 0,0 c -0.48,0.32 -1.12,0.48 -2.25,0.64 -0.96,0.16 -2.08,0.32 -3.52,0.32 -1.93,0 -3.53,-0.32 -4.97,-1.12 -1.6,-0.8 -2.73,-1.92 -3.53,-3.2 -0.8,-1.45 -1.12,-2.89 -1.12,-4.65 0,-2.08 0.32,-3.84 1.28,-5.29 0.8,-1.44 2.09,-2.56 3.69,-3.36 1.6,-0.799999 3.37,-1.120001 5.61,-1.120001 1.12,0 2.08,0 3.04,0.16 0.97,0.160002 1.61,0.320002 1.77,0.640001 v 5.77 c -0.32,-0.32 -0.8,-0.64 -1.61,-0.8 -0.64,-0.16 -1.28,-0.32 -1.92,-0.32 -1.44,0 -2.56,0.32 -3.2,0.96 -0.81,0.8 -1.13,1.76 -1.13,3.04 0,1.12 0.32,2.08 1.13,2.88 0.64,0.64 1.6,0.96 3.04,0.96 1.28,0 2.57,-0.32 3.69,-0.96 z"
       style="fill:#000000;fill-opacity:1;fill-rule:nonzero;stroke:none"
       transform="matrix(0.4009142,0,0,0.4009142,128.07612,153.54331)"
       clip-path="url(#clipPath21)" />
    <path
       id="path22"
       d="m 0,0 v -10.09 c 0,-1.76 -0.64,-2.72 -2.08,-2.72 -0.64,0 -1.12,0.32 -1.44,0.8 -0.48,0.48 -0.64,1.12 -0.64,1.92 V 0 h -7.38 v -26.43 h 7.38 v 11.05 H -4 c 0.64,-0.96 1.44,-1.6 2.24,-2.079999 C -0.8,-17.940001 0.16,-18.26 1.29,-18.26 c 1.92,0 3.36,0.639999 4.32,1.92 1.12,1.12 1.61,3.04 1.61,5.45 L 7.22,0 Z"
       style="fill:#000000;fill-opacity:1;fill-rule:nonzero;stroke:none"
       transform="matrix(0.4009142,0,0,0.4009142,133.92144,153.73575)"
       clip-path="url(#clipPath23)" />
    <path
       id="path24"
       d="M 0,0 C 0,0.96 -0.49,1.77 -1.13,2.57 -1.93,3.21 -2.89,3.53 -4.17,3.53 -5.45,3.53 -6.42,3.21 -7.22,2.41 -8.02,1.77 -8.34,0.96 -8.34,0 c 0,-1.12 0.32,-1.92 1.12,-2.56 0.8,-0.64 1.77,-0.96 3.05,-0.96 1.12,0 2.24,0.32 3.04,0.96 C -0.49,-1.92 0,-1.12 0,0 Z M -7.86,22.59 V 4.81 h 7.37 v 17.78 z"
       style="fill:#000000;fill-opacity:1;fill-rule:nonzero;stroke:none"
       transform="matrix(0.4009142,0,0,0.4009142,141.3143,144.6791)"
       clip-path="url(#clipPath25)" />
    <path
       id="path26"
       d="m 0,0 h -8.97 l -5.93,-17.780001 h 7.85 L -4.97,-8.01 c 0.33,1.44 0.49,2.72 0.65,3.53 v 0 c 0,-0.32 0.16,-0.49 0.16,-0.81 0,-0.16 0.96,-4.32 2.56,-12.490001 h 7.69 z"
       style="fill:#000000;fill-opacity:1;fill-rule:nonzero;stroke:none"
       transform="matrix(0.4009142,0,0,0.4009142,147.8011,153.73575)"
       clip-path="url(#clipPath27)" />
    <path
       id="path28"
       d="m 0,0 c 0.16,0.64 0.64,1.28 1.28,1.76 0.8,0.49 1.76,0.65 3.05,0.65 1.76,0 3.36,-0.32 4.96,-0.97 v 4.65 c -1.76,0.8 -4,1.12 -6.57,1.12 -3.04,0 -5.61,-0.8 -7.21,-2.4 -1.76,-1.6 -2.72,-3.85 -2.72,-6.57 0,-1.92 0.48,-3.68 1.12,-5.13 0.8,-1.44 1.92,-2.56 3.52,-3.36 1.45,-0.8 3.05,-1.28 4.81,-1.28 1.93,0 3.53,0.32 4.81,1.12 1.28,0.64 2.4,1.6 3.05,3.04 0.64,1.29 0.96,2.73 0.96,4.49 V 0 Z M 4.49,-4 C 4.49,-6.08 3.68,-7.05 2.24,-7.05 1.6,-7.05 1.12,-6.73 0.8,-6.24 0.32,-5.6 0,-4.8 0,-4 Z"
       style="fill:#000000;fill-opacity:1;fill-rule:nonzero;stroke:none"
       transform="matrix(0.4009142,0,0,0.4009142,153.52214,151.0376)"
       clip-path="url(#clipPath29)" />
  </g>
</svg>
