<svg xmlns="http://www.w3.org/2000/svg" width="180.295" height="58" viewBox="0 -14.5 180.295 58"><path fill="#389eac" d="M79.835 18.952h2.317V7.2H59.806v11.753h2.317l1.688 6.158h-6.488v2.93h27.312v-2.896h-6.62l1.82-6.174v-.018zM63.812 10.18h14.5v5.842h-14.5v-5.876.033zm10.33 15.096h-6.324l-1.722-6.19h9.9l-1.855 6.19zm85.81-20.063l-4.8-4.006-2.317 1.54 4.17 4.8m-60.02 9.882l-1.987.28v-3.095h2.45V11.85h-1.225l.447-5.71h.612V3.194h-2.317V1.207h-2.93V3.36h-2.6v2.78h.448l.463 5.71H88.94v2.765h2.813v3.56l-2.814.33.33 2.913 2.152-.447c-.298 2.153-.76 4.934-1.688 6.622l2.93 1.258c1.54-2.483 1.986-6.042 2.152-8.508l1.854-.33.33-2.6-.016.017zm-2.93-5.58h-1.408l-.33-5.71h1.87l-.167 5.71h.034zm36.714-6.008L127.84.43l-3.394 1.704 3.56 4.8M57.488 1.54h26.98V4.6H57.49V1.54zm84.85 20.36s-1.077.595-2.65 1.058c-.446.166-.91 0-.91-.778v-3.84h2.947v-8.194h-3.377l2.152-3.377-2.483-1.39-3.063 4.8h-2.814l1.556-1.093-1.69-2.947-2.648 1.39 1.87 2.483h-3.56v8.16h2.484c0 2.93-.463 4.636-3.08 6.175l1.855 2.78c3.71-2.15 4.47-5.097 4.636-8.938h2.152v3.973c0 3.41 2.317 4.47 4.006 3.56.778-.448 2.93-1.226 2.93-1.226l-.33-2.6.015.002zm-4.006-6.34h-6.787v-2.765h6.787v2.764zm37.956-1.392l2.93.463.63-3.972V7.845h-7.88v-2.45h7.416v-2.78h-7.416V1.04h-3.08v1.556h-7.564v2.93h7.565v2.466h-8.176v2.93h16.222M116.12 6.14h.926V3.194h-2.78V1.207h-3.096V3.36h-2.93l-1.854-2.153-8.475 1.705v10.18c0 6.025-.165 9.435-2.482 15.13L97.91 29c2.484-6.058 2.484-9.6 2.484-15.775V5.048l1.225-.166v20.526h-2.484l.463 3.095 6.024-.927-.463-2.317h-1.538V4.45l1.39-.166v8.806c0 2.93 0 9.568 1.87 15.593l2.483-.463c-1.87-5.876-1.87-12.35-1.87-15.13v-9.27l.612-.165v2.317h1.076l.463 5.727h-1.54v2.782h2.93v3.542h-2.316v2.78h2.648v7.566h3.062v-7.548h2.45v-2.78h-2.483V14.5h2.946v-2.648h-1.688l.463-5.694V6.14zm-2.65 5.71h-1.356l-.33-5.71h1.87l-.167 5.71h-.016zm66.38 14.02l-7.566-4.634h7.4V18.34h-6.788c.33-1.39.33-2.615.33-3.08v-3.293h-3.094v3.244c0 .613-.166 1.855-.463 3.08h-2.782l.596-1.986-5.214-1.688-.63 2.02 3.71 1.853h-4.338v2.93h7.565c-1.225 2.018-3.377 3.872-6.92 4.634L162.27 29c3.972-.927 6.62-2.93 8.31-5.098L178.44 29h.166l1.688-2.648-.463-.447.016-.034zM158.71 8.773h-6.34v2.93h3.244v13.11l-.927.778 1.39 3.08 4.635-4.636v-3.708l-1.986 1.688m9.7-6.455l.928-2.65-5.247-1.654-.596 1.986M122.13 7.216h3.393v21.602h-3.392V7.216z"/><path fill="#389eac" d="M132.474 4.915h11.868v19.6c0 .926-.778.926-1.076.926h-1.39l.463 3.08h2.482c.76 0 2.913 0 2.913-2.78V1.984h-15.262v2.93zM31.334.745c-5.412 1.853-8.193 8.938-14.516 9.88C9.866 11.538 1.538 4.122 0 1.656c0 0 1.076 1.853 2.615 4.303C10.643 18.62 15.89 26.648 24.53 27.725c10.794 1.39 16.653-9.27 18.044-13.573 1.24-3.542 3.542-3.393 5.098-2.93l1.39.463S43.484-3.445 31.302.727l.033.017z"/></svg>
